<svg id="visual" viewBox="0 0 1280 900" width="1280" height="900" xmlns="http://www.w3.org/2000/svg" xmlns:xlink="http://www.w3.org/1999/xlink" version="1.1"><path d="M0 46L128 46L128 73L256 73L256 73L384 73L384 73L512 73L512 28L640 28L640 73L768 73L768 73L896 73L896 19L1024 19L1024 73L1152 73L1152 37L1280 37L1280 46L1280 0L1280 0L1152 0L1152 0L1024 0L1024 0L896 0L896 0L768 0L768 0L640 0L640 0L512 0L512 0L384 0L384 0L256 0L256 0L128 0L128 0L0 0Z" fill="#fa7268"></path><path d="M0 118L128 118L128 136L256 136L256 163L384 163L384 118L512 118L512 127L640 127L640 91L768 91L768 109L896 109L896 82L1024 82L1024 163L1152 163L1152 127L1280 127L1280 109L1280 44L1280 35L1152 35L1152 71L1024 71L1024 17L896 17L896 71L768 71L768 71L640 71L640 26L512 26L512 71L384 71L384 71L256 71L256 71L128 71L128 44L0 44Z" fill="#f36967"></path><path d="M0 208L128 208L128 217L256 217L256 181L384 181L384 145L512 145L512 190L640 190L640 199L768 199L768 136L896 136L896 118L1024 118L1024 190L1152 190L1152 145L1280 145L1280 181L1280 107L1280 125L1152 125L1152 161L1024 161L1024 80L896 80L896 107L768 107L768 89L640 89L640 125L512 125L512 116L384 116L384 161L256 161L256 134L128 134L128 116L0 116Z" fill="#ec6066"></path><path d="M0 244L128 244L128 262L256 262L256 235L384 235L384 235L512 235L512 316L640 316L640 307L768 307L768 217L896 217L896 163L1024 163L1024 334L1152 334L1152 289L1280 289L1280 253L1280 179L1280 143L1152 143L1152 188L1024 188L1024 116L896 116L896 134L768 134L768 197L640 197L640 188L512 188L512 143L384 143L384 179L256 179L256 215L128 215L128 206L0 206Z" fill="#e45765"></path><path d="M0 352L128 352L128 505L256 505L256 460L384 460L384 316L512 316L512 460L640 460L640 559L768 559L768 577L896 577L896 433L1024 433L1024 424L1152 424L1152 451L1280 451L1280 586L1280 251L1280 287L1152 287L1152 332L1024 332L1024 161L896 161L896 215L768 215L768 305L640 305L640 314L512 314L512 233L384 233L384 233L256 233L256 260L128 260L128 242L0 242Z" fill="#dc4e64"></path><path d="M0 415L128 415L128 550L256 550L256 613L384 613L384 505L512 505L512 586L640 586L640 676L768 676L768 631L896 631L896 478L1024 478L1024 577L1152 577L1152 568L1280 568L1280 712L1280 584L1280 449L1152 449L1152 422L1024 422L1024 431L896 431L896 575L768 575L768 557L640 557L640 458L512 458L512 314L384 314L384 458L256 458L256 503L128 503L128 350L0 350Z" fill="#d44663"></path><path d="M0 469L128 469L128 613L256 613L256 622L384 622L384 541L512 541L512 649L640 649L640 694L768 694L768 649L896 649L896 505L1024 505L1024 622L1152 622L1152 649L1280 649L1280 721L1280 710L1280 566L1152 566L1152 575L1024 575L1024 476L896 476L896 629L768 629L768 674L640 674L640 584L512 584L512 503L384 503L384 611L256 611L256 548L128 548L128 413L0 413Z" fill="#cb3d62"></path><path d="M0 766L128 766L128 784L256 784L256 829L384 829L384 784L512 784L512 766L640 766L640 739L768 739L768 793L896 793L896 784L1024 784L1024 793L1152 793L1152 775L1280 775L1280 784L1280 719L1280 647L1152 647L1152 620L1024 620L1024 503L896 503L896 647L768 647L768 692L640 692L640 647L512 647L512 539L384 539L384 620L256 620L256 611L128 611L128 467L0 467Z" fill="#c23561"></path><path d="M0 847L128 847L128 856L256 856L256 883L384 883L384 811L512 811L512 811L640 811L640 784L768 784L768 829L896 829L896 856L1024 856L1024 838L1152 838L1152 793L1280 793L1280 820L1280 782L1280 773L1152 773L1152 791L1024 791L1024 782L896 782L896 791L768 791L768 737L640 737L640 764L512 764L512 782L384 782L384 827L256 827L256 782L128 782L128 764L0 764Z" fill="#b92c60"></path><path d="M0 901L128 901L128 901L256 901L256 901L384 901L384 901L512 901L512 901L640 901L640 901L768 901L768 901L896 901L896 901L1024 901L1024 901L1152 901L1152 901L1280 901L1280 901L1280 818L1280 791L1152 791L1152 836L1024 836L1024 854L896 854L896 827L768 827L768 782L640 782L640 809L512 809L512 809L384 809L384 881L256 881L256 854L128 854L128 845L0 845Z" fill="#b0235f"></path></svg>